#!OML:ASF F:\VICON\USERDATA\INSTALL\Justin_Nancy\Justin_Nancy.ASF
:FULLY-SPECIFIED
:DEGREES
163
root -8.85682 17.7365 -8.16033 -0.819488 -1.90402 -0.118892
lowerback 6.65038 -0.903214 -1.44786
upperback 0.368861 -1.2167 2.79135
thorax -3.25806 -0.566155 3.81943
lowerneck -17.7088 -2.75462 -8.89447
upperneck 21.45 -2.12383 3.33024
head 9.88852 -1.33188 2.35651
rclavicle -1.93318e-014 2.38542e-014
rhumerus -34.8478 -21.2154 -73.753
rradius 23.5376
rwrist 14.4194
rhand -14.0973 15.5144
rfingers 7.12502
rthumb 12.0353 -14.1195
lclavicle -1.93318e-014 2.38542e-014
lhumerus -26.1776 12.0503 83.713
lradius 27.0683
lwrist -11.4522
lhand -17.8018 25.356
lfingers 7.12502
lthumb 8.46164 55.1665
rfemur -10.3858 4.1306 26.5077
rtibia 19.2213
rfoot -5.29981 -3.85316
rtoes 8.12728
lfemur -14.2141 2.37857 -19.2636
ltibia 62.732
lfoot 7.16514 -10.513
ltoes -14.0245
164
root -8.86612 17.7459 -8.03573 -0.830255 -2.04363 -0.20816
lowerback 6.67953 -0.835017 -1.41711
upperback 0.337193 -1.12216 2.8154
thorax -3.31456 -0.51809 3.81983
lowerneck -17.4246 -2.70122 -9.21823
upperneck 21.3983 -2.0741 3.68991
head 9.82092 -1.295 2.54502
rclavicle -6.60959e-015 2.38542e-015
rhumerus -34.4826 -20.7386 -74.0286
rradius 23.6273
rwrist 14.0046
rhand -13.8406 14.5393
rfingers 7.12502
rthumb 12.2828 -15.0799
lclavicle -6.60959e-015 2.38542e-015
lhumerus -26.5409 12.4076 83.6217
lradius 27.0167
lwrist -11.5941
lhand -18.3293 21.0048
lfingers 7.12502
lthumb 7.95256 50.8352
rfemur -9.82498 4.08878 26.6746
rtibia 18.9493
rfoot -5.3116 -3.88941
rtoes 7.04236
lfemur -15.3704 2.68018 -19.1025
ltibia 63.5783
lfoot 5.88904 -8.90919
ltoes -13.3339
165
root -8.87475 17.7501 -7.91065 -0.697165 -2.26097 -0.428622
lowerback 6.56961 -0.740608 -1.29133
upperback 0.261707 -0.982641 2.90387
thorax -3.34237 -0.448614 3.82688
lowerneck -17.2455 -2.6745 -9.28744
upperneck 21.3462 -2.0444 3.72706
head 9.76826 -1.28304 2.57362
rclavicle -8.99501e-015 1.35174e-014
rhumerus -34.1073 -20.0932 -74.374
rradius 23.8721
rwrist 13.363
rhand -13.5889 12.9326
rfingers 7.12502
rthumb 12.5255 -16.672
lclavicle -8.99501e-015 1.35174e-014
lhumerus -26.9184 12.9813 83.5366
lradius 26.8418
lwrist -11.8934
lhand -19.245 18.6864
lfingers 7.12502
lthumb 7.06862 48.5484
rfemur -9.49753 4.15644 26.9966
rtibia 18.7298
rfoot -5.26265 -3.9683
rtoes 5.41699
lfemur -16.6354 2.98314 -18.8099
ltibia 64.2561
lfoot 4.39965 -7.20126
ltoes -14.7602
166
root -8.87986 17.7597 -7.7848 -0.600432 -2.46633 -0.514908
lowerback 6.40104 -0.60317 -1.15002
upperback 0.313765 -0.792126 2.8472
thorax -3.21088 -0.358722 3.66606
lowerneck -17.2103 -2.72841 -9.10327
upperneck 21.1678 -2.15991 3.67403
head 9.70343 -1.3242 2.50665
rclavicle -1.0138e-014 1.27222e-014
rhumerus -33.6402 -19.8886 -74.8232
rradius 24.2181
rwrist 12.8607
rhand -13.9902 13.7351
rfingers 7.12502
rthumb 12.1386 -15.8928
lclavicle -1.0138e-014 1.27222e-014
lhumerus -26.9442 13.4382 83.4506
lradius 26.7847
lwrist -11.8607
lhand -18.4956 20.3057
lfingers 7.12502
lthumb 7.792 50.1421
rfemur -9.08611 4.23253 27.1368
rtibia 18.5019
rfoot -5.34166 -3.85398
rtoes 6.08218
lfemur -17.8205 3.22621 -18.7079
ltibia 64.7198
lfoot 3.34779 -5.75018
ltoes -13.9238
167
root -8.88928 17.7632 -7.65775 -0.678413 -2.61729 -0.647698
lowerback 6.37359 -0.539328 -0.965341
upperback 0.388219 -0.696357 2.80879
thorax -3.1279 -0.315802 3.51133
lowerneck -17.1536 -2.75553 -8.96588
upperneck 21.1688 -2.20308 3.51435
head 9.69307 -1.35179 2.42192
rclavicle 7.90169e-015 -5.56597e-014
rhumerus -33.1045 -19.8094 -75.1809
rradius 24.2488
rwrist 12.8329
rhand -14.4705 14.9712
rfingers 7.12502
rthumb 11.6754 -14.6835
lclavicle 7.90169e-015 -5.56597e-014
lhumerus -27.0823 13.6564 83.3547
lradius 27.0244
lwrist -10.961
lhand -18.3591 19.9332
lfingers 7.12502
lthumb 7.92371 49.7647
rfemur -8.41878 4.34847 27.3676
rtibia 18.2746
rfoot -5.48321 -3.88914
rtoes 6.94984
lfemur -18.7782 3.43886 -18.5109
ltibia 65.0303
lfoot 2.66134 -4.68357
ltoes -11.4653
168
root -8.90013 17.7587 -7.53174 -0.832769 -2.4945 -0.784698
lowerback 6.51243 -0.585865 -0.891221
upperback 0.405961 -0.750677 2.86662
thorax -3.1839 -0.343013 3.53678
lowerneck -17.1756 -2.75755 -9.07909
upperneck 21.3935 -2.16275 3.46766
head 9.77583 -1.35199 2.43198
rclavicle -3.23025e-015 -1.03368e-014
rhumerus -32.8094 -19.1229 -75.553
rradius 24.7285
rwrist 12.4981
rhand -14.325 14.7151
rfingers 7.12502
rthumb 11.8157 -14.9316
lclavicle -3.23025e-015 -1.03368e-014
lhumerus -27.4721 14.1614 83.2784
lradius 27.2306
lwrist -10.2986
lhand -17.6955 20.7374
lfingers 7.12502
lthumb 8.56424 50.5437
rfemur -7.6496 4.47432 27.5898
rtibia 18.1693
rfoot -5.93969 -4.22893
rtoes 7.59099
lfemur -19.6051 3.41926 -18.2916
ltibia 65.1879
lfoot 2.42032 -3.66886
ltoes -10.5556
169
root -8.90751 17.7478 -7.41178 -0.99722 -2.32761 -0.965932
lowerback 6.73122 -0.610724 -0.747167
upperback 0.458287 -0.772028 2.8805
thorax -3.25262 -0.355248 3.47508
lowerneck -17.25 -2.77304 -9.08809
upperneck 21.5008 -2.20056 3.57063
head 9.83117 -1.35986 2.46573
rclavicle 2.5345e-015 -1.03368e-014
rhumerus -32.5438 -18.0465 -76.2003
rradius 25.6761
rwrist 11.7696
rhand -14.3613 14.3382
rfingers 7.12502
rthumb 11.7807 -15.3105
lclavicle 2.5345e-015 -1.03368e-014
lhumerus -27.8062 14.3625 83.2455
lradius 27.3078
lwrist -9.95885
lhand -17.9329 21.0838
lfingers 7.12502
lthumb 8.33509 50.8993
rfemur -6.95225 4.43566 27.8699
rtibia 18.1726
rfoot -6.52417 -4.5381
rtoes 7.74196
lfemur -20.3524 3.27539 -18.0566
ltibia 65.1834
lfoot 1.98727 -2.54025
ltoes -9.71336
170
root -8.91354 17.7392 -7.28932 -1.0166 -2.4489 -1.09668
lowerback 6.65143 -0.517609 -0.56675
upperback 0.513362 -0.638109 2.82251
thorax -3.16224 -0.292963 3.29796
lowerneck -17.1723 -2.84802 -9.13922
upperneck 21.4734 -2.34347 3.7525
head 9.8192 -1.40931 2.51912
rclavicle 6.65929e-015 2.38542e-015
rhumerus -32.1134 -17.5066 -76.6858
rradius 26.085
rwrist 11.2541
rhand -14.5944 14.2043
rfingers 7.12502
rthumb 11.5559 -15.4571
lclavicle 6.65929e-015 2.38542e-015
lhumerus -27.9905 14.3402 83.1886
lradius 27.1538
lwrist -9.73911
lhand -18.2992 21.1027
lfingers 7.12502
lthumb 7.98158 50.932
rfemur -6.4903 4.38618 28.0852
rtibia 18.2576
rfoot -7.0179 -4.51744
rtoes 7.27989
lfemur -21.1539 3.34377 -17.9057
ltibia 64.9687
lfoot 0.929746 -1.68472
ltoes -8.45784
171
root -8.91654 17.7351 -7.1681 -1.00328 -2.76127 -1.05007
lowerback 6.67192 -0.344569 -0.536634
upperback 0.479552 -0.40795 2.71276
thorax -3.22368 -0.178486 3.14618
lowerneck -17.3712 -2.92089 -9.06301
upperneck 21.7876 -2.44148 3.71596
head 9.97391 -1.45669 2.48279
rclavicle 1.06847e-015 7.15625e-015
rhumerus -31.7836 -17.2093 -77.027
rradius 26.2845
rwrist 10.6497
rhand -14.7516 13.8995
rfingers 7.12502
rthumb 11.4043 -15.7704
lclavicle 1.06847e-015 7.15625e-015
lhumerus -28.4034 14.1645 83.129
lradius 27.1712
lwrist -9.24585
lhand -18.0309 20.9343
lfingers 7.12502
lthumb 8.24051 50.7536
rfemur -6.09686 4.33441 28.0703
rtibia 18.37
rfoot -7.48135 -4.25654
rtoes 7.19105
lfemur -21.9117 3.48053 -18.0069
ltibia 64.503
lfoot -0.0742779 -0.90351
ltoes -7.49679
